<?xml version="1.0" encoding="UTF-8"?>
<svg width="32px" height="32px" viewBox="0 0 32 32" version="1.1" xmlns="http://www.w3.org/2000/svg" xmlns:xlink="http://www.w3.org/1999/xlink">
    <!-- Generator: Sketch 51.3 (57544) - http://www.bohemiancoding.com/sketch -->
    <title>cart-icon</title>
    <desc>Created with Sketch.</desc>
    <defs>
        <path d="M4,6 C3.449219,6 3,6.449219 3,7 C3,7.550781 3.449219,8 4,8 L6.21875,8 L8.84375,18.5 C9.066406,19.390625 9.863281,20 10.78125,20 L22.25,20 C23.152344,20 23.917969,19.402344 24.15625,18.53125 L26.75,9 L10,9 L10.5,11 L24.15625,11 L22.25,18 L10.78125,18 L8.15625,7.5 C7.933594,6.609375 7.136719,6 6.21875,6 L4,6 Z M21,20 C19.355469,20 18,21.355469 18,23 C18,24.644531 19.355469,26 21,26 C22.644531,26 24,24.644531 24,23 C24,21.355469 22.644531,20 21,20 Z M12,20 C10.355469,20 9,21.355469 9,23 C9,24.644531 10.355469,26 12,26 C13.644531,26 15,24.644531 15,23 C15,21.355469 13.644531,20 12,20 Z M12,22 C12.5625,22 13,22.4375 13,23 C13,23.5625 12.5625,24 12,24 C11.4375,24 11,23.5625 11,23 C11,22.4375 11.4375,22 12,22 Z M21,22 C21.5625,22 22,22.4375 22,23 C22,23.5625 21.5625,24 21,24 C20.4375,24 20,23.5625 20,23 C20,22.4375 20.4375,22 21,22 Z" id="path-1"></path>
    </defs>
    <g id="cart-icon" stroke="none" stroke-width="1" fill="none" fill-rule="evenodd">
        <mask id="mask-2" fill="white">
            <use xlink:href="#path-1"></use>
        </mask>
        <use id="Mask" fill="#222222" fill-rule="nonzero" xlink:href="#path-1"></use>
    </g>
</svg>