<?xml version="1.0" encoding="UTF-8"?>
<svg width="32px" height="32px" viewBox="0 0 32 32" version="1.1" xmlns="http://www.w3.org/2000/svg" xmlns:xlink="http://www.w3.org/1999/xlink">
    <!-- Generator: Sketch 51.3 (57544) - http://www.bohemiancoding.com/sketch -->
    <title>instagram-icon-white</title>
    <desc>Created with Sketch.</desc>
    <defs></defs>
    <g id="instagram-icon" stroke="none" stroke-width="1" fill="none" fill-rule="evenodd">
        <path d="M4,10.92569 C4,7.10073704 7.10070253,4 10.92569,4 L21.07431,4 C24.899263,4 28,7.10070253 28,10.92569 L28,21.07431 C28,24.899263 24.8992975,28 21.07431,28 L10.92569,28 C7.10073704,28 4,24.8992975 4,21.07431 L4,10.92569 Z M6.17241379,11.1322437 L6.17241379,20.8677563 C6.17241379,23.6110951 8.39300529,25.8275862 11.1322437,25.8275862 L20.8677563,25.8275862 C23.6110951,25.8275862 25.8275862,23.6069947 25.8275862,20.8677563 L25.8275862,11.1322437 C25.8275862,8.38890486 23.6069947,6.17241379 20.8677563,6.17241379 L11.1322437,6.17241379 C8.38890486,6.17241379 6.17241379,8.39300529 6.17241379,11.1322437 Z M16,22.1034483 C12.6291586,22.1034483 9.89655172,19.3708414 9.89655172,16 C9.89655172,12.6291586 12.6291586,9.89655172 16,9.89655172 C19.3708414,9.89655172 22.1034483,12.6291586 22.1034483,16 C22.1034483,19.3708414 19.3708414,22.1034483 16,22.1034483 Z M16,19.9310345 C18.1710504,19.9310345 19.9310345,18.1710504 19.9310345,16 C19.9310345,13.8289496 18.1710504,12.0689655 16,12.0689655 C13.8289496,12.0689655 12.0689655,13.8289496 12.0689655,16 C12.0689655,18.1710504 13.8289496,19.9310345 16,19.9310345 Z M22.3103448,11.0344828 C21.5104842,11.0344828 20.862069,10.3860676 20.862069,9.5862069 C20.862069,8.78634622 21.5104842,8.13793103 22.3103448,8.13793103 C23.1102055,8.13793103 23.7586207,8.78634622 23.7586207,9.5862069 C23.7586207,10.3860676 23.1102055,11.0344828 22.3103448,11.0344828 Z" id="icon" fill="#FFFFFF"></path>
    </g>
</svg>