<?xml version="1.0" encoding="UTF-8"?>
<svg width="32px" height="32px" viewBox="0 0 32 32" version="1.1" xmlns="http://www.w3.org/2000/svg" xmlns:xlink="http://www.w3.org/1999/xlink">
    <!-- Generator: Sketch 51.3 (57544) - http://www.bohemiancoding.com/sketch -->
    <title>paperplane-icon-white</title>
    <desc>Created with Sketch.</desc>
    <defs></defs>
    <g id="paperplane-icon" stroke="none" stroke-width="1" fill="none" fill-rule="evenodd">
        <path d="M26.7973109,2.60472893 C26.6430139,2.48363518 26.4320764,2.46605703 26.2582484,2.55980693 L2.2582484,15.5598069 C2.0844204,15.6535569 1.98285765,15.8430104 2.0023889,16.0402759 C2.01996705,16.2375414 2.1527794,16.4055104 2.3402794,16.4660569 L9.1625454,18.6926194 L8.5023889,25.4465259 C8.4809044,25.6613694 8.6000454,25.8644944 8.7973109,25.9484789 C8.8598109,25.9777759 8.9281704,25.9914479 8.9945764,25.9914479 C9.1332484,25.9914479 9.2699669,25.9328539 9.3656704,25.8234789 L13.6684044,20.9621509 L20.1469204,27.3488694 C20.2406704,27.4406664 20.3656704,27.4914479 20.4945764,27.4914479 C20.5394984,27.4914479 20.5844204,27.4836354 20.6293419,27.4719164 C20.7992639,27.4250414 20.9320764,27.2883229 20.9750454,27.1164479 L26.9750454,3.11644793 C27.0219204,2.92504143 26.9535609,2.72386943 26.7973109,2.60472893 Z M10.1664514,18.6008229 L19.9223109,10.7121509 L13.2738734,19.9172289 L9.6352014,24.0246509 L10.1664514,18.6008229 Z" id="Shape" fill="#FFFFFF" fill-rule="nonzero"></path>
    </g>
</svg>